<svg xmlns="http://www.w3.org/2000/svg" viewBox="0 0 615.09 192.79"><path d="M75.62,143.14H37c-14.34,0-26.57-11-27.49-25.28A27,27,0,0,1,29.68,89.92a9.92,9.92,0,0,0,7.41-10.37C37,78.5,37,77.37,37,76.2A45.5,45.5,0,0,1,90.86,31.46a1.59,1.59,0,0,0,1.69-.76L95.89,25a1.62,1.62,0,0,0-1-2.39A54.39,54.39,0,0,0,82.5,21.22a55,55,0,0,0-55,55c0,1.42,0,2.79.15,4.08a.47.47,0,0,1-.35.49A36.48,36.48,0,0,0,.08,118.55c1.27,19.27,17.7,34.05,37,34.05H73.71a1.61,1.61,0,0,0,1.54-1.14l1.91-6.23A1.62,1.62,0,0,0,75.62,143.14Z" style="fill:#fff"/><path d="M170.15,80.27a36.5,36.5,0,0,0-7-.67.61.61,0,0,1-.4-.15.66.66,0,0,1-.17-.37,15.25,15.25,0,0,0,.1-1.84,18,18,0,0,0-18-18,17.78,17.78,0,0,0-8.63,2.2.48.48,0,0,1-.69-.29,54.38,54.38,0,0,0-5.65-13.06,1.61,1.61,0,0,0-2.91.38L124.21,57a1.63,1.63,0,0,0,.07,1.11,44.21,44.21,0,0,1,2,5.49A10.12,10.12,0,0,0,131,69.66a9.88,9.88,0,0,0,9.64.06,8.47,8.47,0,0,1,4.1-1,8.57,8.57,0,0,1,8.55,8.56,7.35,7.35,0,0,1,0,.85,10,10,0,0,0,10,11,26.78,26.78,0,0,1,5.16.49,27,27,0,0,1-5.16,53.59H128a1.61,1.61,0,0,0-1.38.8L123,150.17a1.62,1.62,0,0,0,1.39,2.43h38.85a36.5,36.5,0,0,0,7-72.33Z" style="fill:#fff"/><path d="M82.65,192.79a5.37,5.37,0,0,1-5.12-6.94l18.9-61.68a5.36,5.36,0,1,1,10.26,3.14l-5.59,18.23L132.41,92.4c-36.72.34-38.38-.07-39.12-.25a5.37,5.37,0,0,1,2.2-10.5c3.24.28,30,.1,46.3-.07a5.35,5.35,0,0,1,4.68,8.08L87.28,190.15A5.38,5.38,0,0,1,82.65,192.79ZM95.57,81.66l.33.08Z" style="fill:#54d0db"/><path d="M112.48,111.22a5.69,5.69,0,0,1-.91-.08c-3.23-.28-30-.1-46.3.08a5.37,5.37,0,0,1-4.68-8.09L119.79,2.64a5.37,5.37,0,0,1,9.75,4.3l-18.9,61.68a5.36,5.36,0,1,1-10.26-3.14L106,47.25l-31.3,53.14c36.72-.34,38.38.07,39.11.25a5.37,5.37,0,0,1-1.29,10.58Zm-1.54-.62.31.07Z" style="fill:#54d0db"/><path d="M276.91,34.09c1.12,0,1.68.59,1.68,1.76v5c0,1.23-.56,1.85-1.68,1.85h-8.23L265.48,56h7.31c1.12,0,1.68.62,1.68,1.85v5c0,1.17-.56,1.76-1.68,1.76h-9.41l-2.43,10c-.23,1.17-.84,1.76-1.85,1.76h-5.29c-1.29,0-1.77-.62-1.43-1.85l2.44-9.91h-9.49l-2.44,10a2.14,2.14,0,0,1-2.18,1.76h-5c-1.23,0-1.71-.62-1.43-1.85l2.44-9.91H230a1.56,1.56,0,0,1-1.77-1.76v-5c0-1.23.59-1.85,1.77-1.85h8.82l3.19-13.35h-7.9c-1.17,0-1.76-.62-1.76-1.85v-5a1.56,1.56,0,0,1,1.76-1.76h10l2.43-10c.28-1.17.9-1.76,1.85-1.76h5.21c1.29,0,1.79.62,1.51,1.85l-2.43,9.91h9.49l2.43-10a2.14,2.14,0,0,1,2.19-1.76h4.87c1.34,0,1.85.62,1.51,1.85l-2.43,9.91ZM256.92,56l3.19-13.35h-9.49L247.42,56Z" style="fill:#fff"/><path d="M287,74.58V24.09a1.56,1.56,0,0,1,1.76-1.76h20.16q6.63,0,10.25,3.53t3.61,10.08v3.44q0,7.14-6.63,9.24a8.78,8.78,0,0,1,5.37,2.73,9.11,9.11,0,0,1,2,6.34v5q0,6.56-3.61,10.08t-10.17,3.53h-21A1.56,1.56,0,0,1,287,74.58Zm11.59-30.33h8.57a5.82,5.82,0,0,0,4-1.13,4.82,4.82,0,0,0,1.26-3.74V36.1a4.91,4.91,0,0,0-1.22-3.73,5.6,5.6,0,0,0-3.91-1.14h-8.65a.81.81,0,0,0-.92.93V43.33A.81.81,0,0,0,298.58,44.25Zm0,23.19H308a5.73,5.73,0,0,0,4-1.14,4.92,4.92,0,0,0,1.22-3.74V57.69A4.66,4.66,0,0,0,311.94,54a6.25,6.25,0,0,0-4.12-1.1h-9.24a.81.81,0,0,0-.92.93V66.51A.81.81,0,0,0,298.58,67.44Z" style="fill:#fff"/><path d="M342.51,76.34h-7.14a1.56,1.56,0,0,1-1.76-1.76V24.09a1.56,1.56,0,0,1,1.76-1.76h20q6.56,0,10.25,3.61t3.7,10.16v6.56q0,9.5-7.48,12.6v.33l9,18.73c.5,1.35,0,2-1.43,2h-6.8A5.13,5.13,0,0,1,360.4,76a2.48,2.48,0,0,1-1.09-1.42l-8.4-18.15h-5.63c-.67,0-1,.31-1,.93V74.58A1.56,1.56,0,0,1,342.51,76.34Zm2.69-28.48h8.23a5.77,5.77,0,0,0,3.95-1.13,4.69,4.69,0,0,0,1.26-3.65V36.52a5,5,0,0,0-1.26-3.78,5.67,5.67,0,0,0-3.95-1.17H345.2a.81.81,0,0,0-.92.92V46.94A.81.81,0,0,0,345.2,47.86Z" style="fill:#fff"/><path d="M408.79,76.34H381.32a1.56,1.56,0,0,1-1.77-1.76V24.09a1.56,1.56,0,0,1,1.77-1.76h27.47c1.12,0,1.68.59,1.68,1.76V29.8q0,1.77-1.68,1.77H391.23c-.67,0-1,.31-1,.92V43.41c0,.62.34.93,1,.93h14.36a1.56,1.56,0,0,1,1.77,1.76v5.71a1.56,1.56,0,0,1-1.77,1.77H391.23c-.67,0-1,.31-1,.92V66.18c0,.61.34.92,1,.92h17.56c1.12,0,1.68.59,1.68,1.76v5.72C410.47,75.75,409.91,76.34,408.79,76.34Z" style="fill:#fff"/><path d="M425.42,76.34h-8.07c-1,0-1.34-.59-1-1.76l13.27-50.49a2.41,2.41,0,0,1,2.52-1.76h11.17a2.26,2.26,0,0,1,2.52,1.76L459.1,74.58c.34,1.17,0,1.76-1,1.76H450a1.65,1.65,0,0,1-1.26-.38,2.87,2.87,0,0,1-.5-1.38l-2.36-9.24H429.53l-2.35,9.24a2.56,2.56,0,0,1-.54,1.38A1.7,1.7,0,0,1,425.42,76.34ZM437.6,32.49l-6.05,24.28H444l-6.05-24.28Z" style="fill:#fff"/><path d="M475.48,76.34h-7.14a1.56,1.56,0,0,1-1.76-1.76V24.09a1.56,1.56,0,0,1,1.76-1.76h7.14a1.56,1.56,0,0,1,1.77,1.76V48h.16A28,28,0,0,1,480,42.82l12.77-18.73a3.59,3.59,0,0,1,3.27-1.76h8.23q.93,0,1.14.54c.14.37,0,.83-.46,1.39L489,46.35l17.8,27.89c.39.67.47,1.19.21,1.55a1.77,1.77,0,0,1-1.55.55h-6.13c-2,0-3.28-.59-3.95-1.76L482.54,54l-5.29,6.21V74.58A1.56,1.56,0,0,1,475.48,76.34Z" style="fill:#fff"/><path d="M247.51,150.34h-7.06c-1.23,0-1.85-.59-1.85-1.76V106.49a.81.81,0,0,0-.92-.92H228.1a1.56,1.56,0,0,1-1.76-1.77V98.09a1.56,1.56,0,0,1,1.76-1.76h31.76a1.56,1.56,0,0,1,1.76,1.76v5.71a1.56,1.56,0,0,1-1.76,1.77h-9.58c-.67,0-1,.31-1,.92v42.09A1.56,1.56,0,0,1,247.51,150.34Z" style="fill:#fff"/><path d="M276.91,150.34h-7.14a1.56,1.56,0,0,1-1.77-1.76V98.09a1.56,1.56,0,0,1,1.77-1.76h7.14a1.56,1.56,0,0,1,1.76,1.76v19.74c0,.62.34.93,1,.93h14.2a.82.82,0,0,0,.92-.93V98.09a1.56,1.56,0,0,1,1.76-1.76h7.14a1.56,1.56,0,0,1,1.77,1.76v50.49a1.56,1.56,0,0,1-1.77,1.76h-7.14a1.56,1.56,0,0,1-1.76-1.76V128.92a.81.81,0,0,0-.92-.92h-14.2c-.67,0-1,.3-1,.92v19.66A1.56,1.56,0,0,1,276.91,150.34Z" style="fill:#fff"/><path d="M345.62,150.34H318.15a1.55,1.55,0,0,1-1.76-1.76V98.09a1.55,1.55,0,0,1,1.76-1.76h27.47c1.12,0,1.68.59,1.68,1.76v5.71q0,1.77-1.68,1.77H328.06c-.67,0-1,.31-1,.92v10.92c0,.62.34.93,1,.93h14.37a1.55,1.55,0,0,1,1.76,1.76v5.71a1.56,1.56,0,0,1-1.76,1.77H328.06c-.67,0-1,.31-1,.92v11.68c0,.61.34.92,1,.92h17.56c1.12,0,1.68.59,1.68,1.76v5.72C347.3,149.75,346.74,150.34,345.62,150.34Z" style="fill:#fff"/><path d="M378.8,150.34h-9.16q-6.63,0-10.25-3.53t-3.61-10.16V110q0-6.63,3.61-10.16t10.25-3.53h9.16q6.56,0,10.2,3.57T392.66,110v4a1.64,1.64,0,0,1-1.85,1.85h-7.06c-1.17,0-1.76-.62-1.76-1.85v-3.45a4.17,4.17,0,0,0-5-5h-5.71a5.19,5.19,0,0,0-3.74,1.13,5.32,5.32,0,0,0-1.13,3.82v25.62a5.33,5.33,0,0,0,1.13,3.83,5.19,5.19,0,0,0,3.74,1.13H377a4.18,4.18,0,0,0,5-5V132.7c0-1.23.59-1.85,1.76-1.85h7.06a1.64,1.64,0,0,1,1.85,1.85v4q0,6.56-3.66,10.12T378.8,150.34Z" style="fill:#fff"/><path d="M431.21,150.34H403.58a1.56,1.56,0,0,1-1.77-1.76V98.09a1.56,1.56,0,0,1,1.77-1.76h7.14a1.56,1.56,0,0,1,1.76,1.76v42c0,.62.34.93,1,.93h17.72c1.12,0,1.68.61,1.68,1.84v5.72C432.89,149.75,432.33,150.34,431.21,150.34Z" style="fill:#fff"/><path d="M462,150.34h-9.41q-6.65,0-10.25-3.53t-3.61-10.16V110q0-6.63,3.61-10.16t10.25-3.53H462q6.63,0,10.25,3.53T475.82,110v26.63q0,6.63-3.61,10.16T462,150.34Zm-7.73-9.24h6a4.18,4.18,0,0,0,5-5V110.52a4.18,4.18,0,0,0-5-5h-6a5.16,5.16,0,0,0-3.78,1.13,5.42,5.42,0,0,0-1.09,3.82v25.62a5.43,5.43,0,0,0,1.09,3.83A5.16,5.16,0,0,0,454.23,141.1Z" style="fill:#fff"/><path d="M513.53,96.33h7.06c1.23,0,1.85.56,1.85,1.68v38.64q0,6.56-3.66,10.12c-2.43,2.38-5.84,3.57-10.2,3.57h-9.24q-6.64,0-10.25-3.53t-3.61-10.16V98.09a1.55,1.55,0,0,1,1.76-1.76h7.14a1.55,1.55,0,0,1,1.76,1.76v38a5.28,5.28,0,0,0,1.14,3.83A5.16,5.16,0,0,0,501,141.1h5.79a4.18,4.18,0,0,0,5-5v-38A1.56,1.56,0,0,1,513.53,96.33Z" style="fill:#fff"/><path d="M532.94,148.58V98.09a1.55,1.55,0,0,1,1.76-1.76h20.75q6.56,0,10.2,3.57T569.31,110v26.63q0,6.56-3.66,10.12t-10.2,3.57H534.7A1.55,1.55,0,0,1,532.94,148.58Zm11.59-7.48h9.15a4.18,4.18,0,0,0,5-5V110.52a4.17,4.17,0,0,0-5-5h-9.15a.82.82,0,0,0-.93.92v33.69A.82.82,0,0,0,544.53,141.1Z" style="fill:#fff"/><path d="M578,136.56v-1.68a1.56,1.56,0,0,1,1.77-1.76H587a1.56,1.56,0,0,1,1.76,1.76v.68c0,2.13.42,3.58,1.26,4.36s2.38,1.18,4.62,1.18h3.95c2.18,0,3.71-.42,4.58-1.26s1.3-2.41,1.3-4.7v-1a4.23,4.23,0,0,0-2-3.74,10.33,10.33,0,0,0-4.92-1.55,52.79,52.79,0,0,1-6.34-1,39.85,39.85,0,0,1-6.34-1.85,10,10,0,0,1-4.92-4.45,16.54,16.54,0,0,1-2-8.53V110.1q0-6.54,3.7-10.16t10.24-3.61h8.4q6.65,0,10.33,3.61t3.7,10.16v1.6a1.55,1.55,0,0,1-1.76,1.76h-7.14a1.56,1.56,0,0,1-1.77-1.76v-.5c0-2.19-.42-3.67-1.26-4.46s-2.38-1.17-4.62-1.17h-3.27c-2.3,0-3.85.43-4.67,1.3s-1.21,2.56-1.21,5.08v1.6q0,3.95,6.88,4.53a43,43,0,0,1,12.69,2.86,10.74,10.74,0,0,1,4.91,4.49,15.67,15.67,0,0,1,2,8.28v2.85q0,6.56-3.7,10.17t-10.25,3.61H592q-6.56,0-10.25-3.61T578,136.56Z" style="fill:#fff"/></svg>